#!OML:ASF H:\charlestonDancing\Project 1\Capture day 1\Session 1\femaleDancer.ASF
:FULLY-SPECIFIED
:DEGREES
342
root -1.10211 17.1966 4.63373 506.696 -79.5017 -503.146
lowerback 23.535 -2.31697 8.31616
upperback 6.08473 -1.56212 0.14185
thorax -6.54872 -1.05483 -4.12846
lowerneck 12.649 17.37 16.8135
upperneck -12.9537 24.1463 -21.7628
head -0.99799 12.8199 -9.3664
rclavicle 1.05356e-014 -1.78906e-014
rhumerus -53.3946 -20.7458 -50.5577
rradius 100.361
rwrist -48.9851
rhand -15.036 -34.3943
rfingers 7.12502
rthumb 11.1301 -64.0791
lclavicle 1.05356e-014 -1.78906e-014
lhumerus -51.3874 14.0742 70.0543
lradius 19.1901
lwrist -13.23
lhand -22.447 20.0825
lfingers 7.12502
lthumb 3.97714 50.0252
rfemur -24.4355 4.75498 31.4189
rtibia 44.9235
rfoot -19.19 7.79666
rtoes -8.04388
lfemur -44.3892 8.02014 -11.4662
ltibia 94.8633
lfoot -8.74547 -4.62874
ltoes -24.6708
343
root -1.15199 17.3103 4.65444 507.511 -79.2733 -503.876
lowerback 23.454 -2.04976 8.49423
upperback 6.27364 -1.21542 0.0614726
thorax -6.25272 -0.879524 -4.42292
lowerneck 12.2481 17.5443 16.7505
upperneck -12.5058 24.3831 -21.5086
head -0.807293 12.9071 -9.18191
rclavicle 1.19271e-015 -2.54444e-014
rhumerus -53.4403 -22.0812 -50.5814
rradius 99.2436
rwrist -48.6524
rhand -14.0315 -33.2829
rfingers 7.12502
rthumb 12.0987 -62.9131
lclavicle 1.19271e-015 -2.54444e-014
lhumerus -56.3286 21.6973 59.201
lradius 14.1151
lwrist -24.4419
lhand -19.9239 20.5266
lfingers 7.12502
lthumb 6.41332 50.4095
rfemur -23.6586 4.88164 31.3224
rtibia 43.5904
rfoot -18.1005 7.97245
rtoes -8.33769
lfemur -46.7064 6.27 -10.6074
ltibia 92.5767
lfoot -9.82124 -4.45292
ltoes -24.9025
344
root -1.19814 17.4333 4.67455 509.808 -79.2173 -506.068
lowerback 23.434 -1.74547 8.29509
upperback 6.45343 -0.907925 -0.133532
thorax -6.00273 -0.719973 -4.61365
lowerneck 11.8229 17.4952 16.8612
upperneck -12.1926 24.3189 -21.3805
head -0.666894 12.8448 -9.09408
rclavicle 3.18055e-015 -2.18663e-014
rhumerus -53.4811 -23.3714 -50.6493
rradius 98.0691
rwrist -48.3071
rhand -13.1711 -32.151
rfingers 7.12502
rthumb 12.9283 -61.7305
lclavicle 3.18055e-015 -2.18663e-014
lhumerus -68.049 32.2224 36.0523
lradius 10.3007
lwrist -46.6541
lhand -16.6441 20.0422
lfingers 7.12502
lthumb 9.57878 49.8044
rfemur -22.8464 5.00536 30.8878
rtibia 42.0137
rfoot -17.1051 7.93657
rtoes -8.82016
lfemur -48.4668 4.37162 -10.0372
ltibia 88.8301
lfoot -11.074 -4.19519
ltoes -27.1429
345
root -1.23933 17.555 4.69686 512.476 -79.1661 -508.748
lowerback 23.5733 -1.47286 7.95048
upperback 6.68706 -0.671045 -0.333024
thorax -5.78427 -0.597009 -4.70332
lowerneck 11.5011 17.31 16.7664
upperneck -12.1952 24.0156 -21.2718
head -0.699582 12.6759 -9.05397
rclavicle -4.17448e-015 2.78299e-015
rhumerus -53.3124 -24.4301 -50.7419
rradius 96.8698
rwrist -48.1956
rhand -12.8928 -31.3644
rfingers 7.12502
rthumb 13.1965 -60.9268
lclavicle -4.17448e-015 2.78299e-015
lhumerus -85.9635 37.234 6.01233
lradius 8.8347
lwrist -70.7473
lhand -13.5563 20.1752
lfingers 7.12502
lthumb 12.5569 49.7779
rfemur -21.8649 5.05405 30.396
rtibia 40.3202
rfoot -16.2437 7.71064
rtoes -10.8039
lfemur -49.4954 2.46032 -9.4633
ltibia 83.778
lfoot -12.2913 -3.87496
ltoes -24.7469
346
root -1.27782 17.6871 4.71855 514.476 -78.9262 -510.901
lowerback 23.8556 -1.24408 7.71476
upperback 6.98461 -0.462876 -0.452146
thorax -5.5698 -0.492648 -4.75782
lowerneck 11.2645 17 16.6269
upperneck -12.4225 23.5048 -21.4589
head -0.809711 12.4288 -9.13973
rclavicle -2.24627e-014 1.19271e-015
rhumerus -52.9166 -25.1998 -50.8225
rradius 95.8018
rwrist -48.4793
rhand -12.9304 -31.1695
rfingers 7.12502
rthumb 13.1603 -60.7341
lclavicle -2.24627e-014 1.19271e-015
lhumerus -104.184 33.9808 -24.8559
lradius 9.39772
lwrist -93.2129
lhand -11.4593 20.2598
lfingers 7.12502
lthumb 14.578 49.7275
rfemur -20.6995 5.06623 30.1225
rtibia 38.6279
rfoot -15.0584 7.57415
rtoes -10.5763
lfemur -49.691 0.715467 -8.61843
ltibia 77.5451
lfoot -13.5449 -3.36558
ltoes -19.8045
347
root -1.31604 17.8016 4.7391 516.577 -78.5428 -513.212
lowerback 24.4309 -1.02559 7.40653
upperback 7.10431 -0.243934 -0.540415
thorax -5.69917 -0.398254 -4.74135
lowerneck 11.0783 16.652 16.2567
upperneck -12.5754 22.942 -21.2282
head -1.00294 12.1381 -9.08945
rclavicle -1.98785e-015 -3.49861e-014
rhumerus -52.7019 -25.5096 -50.8291
rradius 95.1242
rwrist -48.9853
rhand -12.9028 -30.9609
rfingers 7.12502
rthumb 13.1869 -60.5238
lclavicle -1.98785e-015 -3.49861e-014
lhumerus -116.266 23.5622 -51.347
lradius 10.52
lwrist -113.364
lhand -12.5283 20.1595
lfingers 7.12502
lthumb 13.5479 49.6987
rfemur -19.4871 5.09407 29.8994
rtibia 36.9394
rfoot -13.82 7.39912
rtoes -11.0928
lfemur -49.3324 -0.874145 -7.69968
ltibia 70.4221
lfoot -14.8262 -2.14764
ltoes -19.6794
348
root -1.35626 17.8821 4.76061 519.55 -78.2789 -516.308
lowerback 24.6736 -0.771314 6.97461
upperback 7.3097 -0.046372 -0.677045
thorax -5.57218 -0.302227 -4.70077
lowerneck 11.0016 16.0925 16.1705
upperneck -12.9518 22.0863 -21.5861
head -1.21416 11.7349 -9.29168
rclavicle 4.17448e-015 -8.34896e-015
rhumerus -52.4561 -25.8666 -50.7622
rradius 94.7014
rwrist -49.3543
rhand -12.6924 -30.4558
rfingers 7.12502
rthumb 13.3897 -60.0055
lclavicle 4.17448e-015 -8.34896e-015
lhumerus -116.64 19.6714 -56.22
lradius 11.0114
lwrist -112.929
lhand -13.4846 21.4107
lfingers 7.12502
lthumb 12.626 51.0091
rfemur -18.4561 5.06254 29.4129
rtibia 35.3631
rfoot -13.0642 7.36626
rtoes -11.6488
lfemur -48.7935 -2.53921 -6.9585
ltibia 62.7642
lfoot -15.688 -0.49073
ltoes -20.5373
349
root -1.3947 17.9695 4.77881 523.537 -77.9876 -520.21
lowerback 24.7905 -0.529799 6.25972
upperback 7.2815 0.0914704 -0.805069
thorax -5.65708 -0.238279 -4.4711
lowerneck 11.1927 15.4126 15.8996
upperneck -13.385 21.0693 -21.7224
head -1.56853 11.2554 -9.45546
rclavicle -1.96797e-014 9.14409e-015
rhumerus -52.3382 -25.7018 -50.5641
rradius 94.4472
rwrist -49.5122
rhand -12.337 -30.074
rfingers 7.12502
rthumb 13.7322 -59.6008
lclavicle -1.96797e-014 9.14409e-015
lhumerus -114.678 17.8494 -55.3903
lradius 11.0704
lwrist -106.14
lhand -14.0848 22.242
lfingers 7.12502
lthumb 12.0474 51.8753
rfemur -17.7859 5.18657 28.6784
rtibia 34.0433
rfoot -12.6723 7.43333
rtoes -11.3145
lfemur -48.1625 -4.13984 -6.32206
ltibia 54.8103
lfoot -15.8557 0.903351
ltoes -20.6888
350
root -1.4362 18.0172 4.7982 526.828 -77.4583 -523.259
lowerback 24.5788 -0.318394 5.74384
upperback 7.25103 0.222711 -0.932997
thorax -5.57905 -0.169638 -4.3505
lowerneck 10.5368 14.9526 15.3487
upperneck -13.0973 20.318 -21.2895
head -1.63155 10.8423 -9.24468
rclavicle -3.51849e-014 1.78906e-014
rhumerus -52.2116 -25.3815 -50.4371
rradius 94.4757
rwrist -49.6684
rhand -12.0139 -29.9632
rfingers 7.12502
rthumb 14.0436 -59.4687
lclavicle -3.51849e-014 1.78906e-014
lhumerus -111.553 17.4292 -50.6375
lradius 10.8914
lwrist -95.2788
lhand -13.6449 22.9922
lfingers 7.12502
lthumb 12.4715 52.6001
rfemur -17.4917 5.49672 28.1291
rtibia 33.0809
rfoot -12.492 7.48101
rtoes -11.0736
lfemur -47.7401 -5.57197 -5.37037
ltibia 47.3318
lfoot -15.4382 2.48227
ltoes -25.1677
351
root -1.48315 18.0163 4.82184 529.215 -76.8972 -525.412
lowerback 24.1902 -0.181477 5.47687
upperback 7.26323 0.306618 -1.07779
thorax -5.36597 -0.119206 -4.37475
lowerneck 7.64486 14.8227 13.7293
upperneck -10.7948 19.9589 -18.9405
head -1.01772 10.4502 -7.96198
rclavicle -7.95139e-015 -2.26615e-014
rhumerus -52.2051 -24.993 -50.34
rradius 94.8624
rwrist -49.8561
rhand -11.8903 -30.1407
rfingers 7.12502
rthumb 14.1627 -59.6379
lclavicle -7.95139e-015 -2.26615e-014
lhumerus -108.591 17.0422 -45.8702
lradius 10.794
lwrist -85.0901
lhand -12.3759 23.2843
lfingers 7.12502
lthumb 13.6948 52.8137
rfemur -17.3813 5.71908 27.7167
rtibia 32.4474
rfoot -12.6576 7.68613
rtoes -10.5612
lfemur -47.5719 -7.03579 -4.12402
ltibia 40.775
lfoot -14.7305 1.00709
ltoes -20.918
352
root -1.52485 17.9981 4.84781 531.765 -76.4808 -527.843
lowerback 23.7459 -0.123433 5.15936
upperback 7.26958 0.277582 -1.26454
thorax -5.14457 -0.122503 -4.38286
lowerneck 7.27551 13.9543 12.3779
upperneck -11.0986 18.6343 -17.4223
head -1.5581 9.73841 -7.43877
rclavicle 5.1684e-015 2.78299e-015
rhumerus -52.2874 -24.4226 -50.2113
rradius 95.4111
rwrist -50.1389
rhand -11.8657 -30.4819
rfingers 7.12502
rthumb 14.1864 -59.9775
lclavicle 5.1684e-015 2.78299e-015
lhumerus -106.878 15.9269 -44.669
lradius 10.8789
lwrist -79.6051
lhand -10.6203 23.2027
lfingers 7.12502
lthumb 15.3862 52.6101
rfemur -17.362 5.80862 27.1387
rtibia 32.2616
rfoot -13.3534 7.88334
rtoes -9.7829
lfemur -47.4505 -7.81465 -3.68817
ltibia 35.9532
lfoot -13.5531 0.452886
ltoes -24.6191
353
root -1.56177 17.954 4.8768 534.049 -76.1913 -530.214
lowerback 23.4526 -0.162151 4.8337
upperback 7.25759 0.134344 -1.41984
thorax -5.03135 -0.186302 -4.32279
lowerneck 6.91274 13.1686 11.6908
upperneck -10.9313 17.5017 -16.7153
head -1.75244 9.14376 -7.16988
rclavicle 1.27222e-014 -2.10712e-014
rhumerus -52.2744 -23.6937 -50.0335
rradius 95.9042
rwrist -50.4655
rhand -11.759 -30.7859
rfingers 7.12502
rthumb 14.2892 -60.2742
lclavicle 1.27222e-014 -2.10712e-014
lhumerus -106.147 14.4585 -46.5029
lradius 11.0325
lwrist -78.7905
lhand -9.13551 23.5263
lfingers 7.12502
lthumb 16.816 52.8181
rfemur -17.3455 5.87997 26.5286
rtibia 32.5672
rfoot -14.4815 7.80486
rtoes -9.36168
lfemur -47.3705 -7.57384 -4.20989
ltibia 33.097
lfoot -11.9464 -1.92291
ltoes -24.2426
354
root -1.59956 17.8893 4.91175 535.343 -75.9298 -531.917
lowerback 23.4669 -0.249504 4.69067
upperback 7.25197 -0.0163609 -1.48142
thorax -5.06294 -0.261507 -4.26702
lowerneck 6.71269 12.3841 11.1184
upperneck -10.5927 16.3936 -16.3264
head -1.86353 8.58039 -6.99789
rclavicle -2.46493e-014 -6.75868e-015
rhumerus -52.3052 -22.8648 -49.6659
rradius 96.3378
rwrist -50.6927
rhand -11.4316 -31.063
rfingers 7.12502
rthumb 14.6047 -60.5288
lclavicle -2.46493e-014 -6.75868e-015
lhumerus -105.697 13.2367 -49.2522
lradius 11.1287
lwrist -80.8589
lhand -8.95186 23.6751
lfingers 7.12502
lthumb 16.9928 52.9518
rfemur -17.1367 5.93929 26.0799
rtibia 33.2037
rfoot -15.6228 7.60633
rtoes -8.96073
lfemur -47.1717 -6.87276 -5.32048
ltibia 32.5407
lfoot -9.53717 -4.49002
ltoes -22.2608
355
root -1.62657 17.804 4.94945 534.986 -75.8255 -532.112
lowerback 23.5135 -0.402851 4.82257
upperback 7.41611 -0.197372 -1.37845
thorax -4.92374 -0.350923 -4.18057
lowerneck 6.88893 11.5232 10.9671
upperneck -10.6335 15.1499 -16.926
head -2.03204 7.99871 -7.22075
rclavicle -1.55052e-014 1.39149e-014
rhumerus -52.1762 -22.1498 -49.2544
rradius 96.6905
rwrist -50.8689
rhand -11.0518 -31.3207
rfingers 7.12502
rthumb 14.9706 -60.7596
lclavicle -1.55052e-014 1.39149e-014
lhumerus -105.447 12.9171 -51.0311
lradius 11.1428
lwrist -83.2247
lhand -10.1515 23.2224
lfingers 7.12502
lthumb 15.8378 52.5946
rfemur -16.8717 5.94653 26.0295
rtibia 34.0636
rfoot -16.5668 7.22148
rtoes -9.3942
lfemur -46.8456 -5.63891 -6.74017
ltibia 33.7893
lfoot -8.24783 -6.00742
ltoes -25.0652
356
root -1.63711 17.7161 4.98321 532.372 -75.8576 -530.103
lowerback 23.9441 -0.669793 5.24819
upperback 7.50182 -0.423202 -1.0634
thorax -5.06393 -0.472617 -4.02045
lowerneck 7.57884 10.613 10.8806
upperneck -11.1831 13.8138 -17.6746
head -2.43888 7.40003 -7.56011
rclavicle 6.36111e-015 -1.45113e-014
rhumerus -52.0167 -21.3178 -48.8696
rradius 96.8732
rwrist -50.9857
rhand -11.0474 -31.4132
rfingers 7.12502
rthumb 14.9749 -60.8518
lclavicle 6.36111e-015 -1.45113e-014
lhumerus -104.975 13.4884 -50.2878
lradius 11.1731
lwrist -83.4613
lhand -11.8959 22.5602
lfingers 7.12502
lthumb 14.1573 52.0578
rfemur -16.5287 5.96194 26.5933
rtibia 34.9536
rfoot -17.3405 6.69252
rtoes -10.0451
lfemur -46.2952 -3.96037 -7.99854
ltibia 36.4408
lfoot -7.68026 -6.34564
ltoes -33.3498
